# xmcd CD database file generated by Grip 3.3.1
# 
# Track frame offsets:
#       150
#       29302
#       49137
#       70820
#       104154
#       139532
#       164747
#       185237
#       203382
#       244127
#       274295
# 
# Disc length: 4231 seconds
# 
# Revision: 3
# Processed by: cddbd v1.5.2PL0 Copyright (c) Steve Scherf et al.
# Submitted via: Grip 3.3.1
# 
DISCID=a810850b
DTITLE=Dr. John - Trippin' Live
DYEAR=1996
DGENRE=Blues
TTITLE0=Tipitina
TTITLE1=Wild Honey
TTITLE2=Didn't He Ramble
TTITLE3=Such a Night
TTITLE4=Renegade
TTITLE5=Kin Folk
TTITLE6=Right Place Wrong Time
TTITLE7=My Buddy
TTITLE8=Medley: Down By The Riverside/My Indian Red/Mardi Gras Day/I Shal
TTITLE8=l Not Be Moved
TTITLE9=24 Hours A Day, 365 A Year (featuring Jools Holland)
TTITLE10=Goodnight Irene
EXTD=
EXTT0=
EXTT1=
EXTT2=
EXTT3=
EXTT4=
EXTT5=
EXTT6=
EXTT7=
EXTT8=
EXTT9=
EXTT10=
PLAYORDER=
